<?xml version="1.0" standalone="no"?>
<!DOCTYPE svg PUBLIC "-//W3C//DTD SVG 20010904//EN"
 "http://www.w3.org/TR/2001/REC-SVG-20010904/DTD/svg10.dtd">
<svg version="1.0" xmlns="http://www.w3.org/2000/svg"
 width="192.000000pt" height="192.000000pt" viewBox="0 0 192.000000 192.000000"
 preserveAspectRatio="xMidYMid meet">
<metadata>
Created by potrace 1.11, written by Peter Selinger 2001-2013
</metadata>
<g transform="translate(0.000000,192.000000) scale(0.100000,-0.100000)"
fill="#000000" stroke="none">
<path d="M976 1909 c2 -4 12 -6 22 -4 9 1 23 -2 30 -8 8 -6 17 -5 27 3 11 9
15 9 15 1 0 -7 6 -11 13 -9 7 2 12 -1 12 -7 0 -5 -8 -10 -17 -10 -9 -1 -15 2
-12 7 7 11 -3 10 -28 -3 -12 -6 -18 -7 -14 -1 3 6 -9 12 -29 14 -23 3 -31 0
-25 -7 5 -6 -5 -10 -30 -10 -21 -1 -37 2 -35 5 7 11 -29 8 -42 -3 -7 -5 -13
-6 -13 -3 0 4 -8 2 -18 -3 -13 -7 -23 -6 -30 1 -9 9 -12 9 -12 0 0 -6 -7 -9
-17 -5 -11 4 -14 3 -9 -5 5 -8 2 -10 -8 -6 -9 3 -13 11 -9 18 3 6 -3 3 -14 -7
-11 -9 -23 -14 -28 -10 -4 5 -5 2 -1 -5 4 -7 16 -10 27 -7 11 4 19 2 19 -5 0
-6 -4 -9 -8 -6 -4 2 -14 1 -22 -4 -9 -5 -19 -5 -27 2 -9 7 -13 7 -13 0 0 -10
-31 -9 -48 2 -5 3 -8 -8 -7 -24 1 -16 -2 -27 -7 -24 -5 4 -7 13 -4 21 3 8 1
11 -4 8 -6 -3 -10 0 -10 7 0 10 -3 9 -10 -2 -5 -8 -5 -19 0 -25 6 -7 3 -11 -8
-12 -63 -5 -86 -11 -90 -24 -3 -11 -2 -11 6 -1 8 11 10 11 15 0 5 -15 3 -16
-44 -21 -41 -5 -52 -16 -37 -35 7 -10 8 -14 4 -10 -5 4 -15 3 -22 -3 -8 -6
-21 -9 -29 -5 -8 3 -15 1 -15 -3 0 -5 6 -12 13 -14 7 -3 4 -6 -6 -6 -10 -1
-16 -5 -13 -10 3 -5 -1 -12 -10 -15 -8 -3 -12 -2 -9 3 3 5 0 13 -6 17 -8 4 -9
3 -5 -4 4 -8 0 -12 -11 -12 -15 0 -16 -2 -3 -11 11 -8 12 -12 2 -16 -6 -2 -10
-9 -6 -14 3 -5 2 -9 -3 -8 -4 1 -19 -3 -33 -9 -14 -6 -20 -11 -14 -11 22 -2
10 -26 -14 -28 -13 0 -29 -7 -36 -13 -8 -10 -8 -11 2 -5 10 5 13 2 10 -11 -2
-11 -11 -18 -22 -18 -9 1 -15 0 -12 -3 3 -3 -2 -12 -10 -20 -8 -8 -12 -19 -9
-24 4 -5 0 -9 -7 -9 -9 0 -9 -3 2 -10 9 -6 11 -10 3 -10 -7 0 -10 -7 -7 -15 4
-8 1 -15 -5 -15 -6 0 -11 5 -11 10 0 6 -6 5 -14 -2 -7 -7 -11 -18 -9 -25 3 -6
-1 -21 -7 -33 -8 -15 -8 -20 -1 -16 8 5 8 0 1 -19 -6 -15 -8 -30 -6 -34 3 -4
-4 -7 -14 -8 -13 -1 -17 3 -13 15 4 13 3 14 -5 3 -5 -7 -9 -21 -7 -30 1 -9 -3
-20 -9 -24 -7 -6 -4 -7 6 -3 10 3 18 1 18 -4 0 -6 -4 -10 -10 -10 -5 0 -10
-22 -10 -48 0 -26 -6 -54 -12 -61 -8 -8 -8 -11 -2 -8 19 11 24 -32 6 -43 -10
-5 -12 -10 -4 -10 13 0 17 -42 5 -54 -10 -10 -11 -46 0 -39 5 3 8 -3 7 -13 -5
-46 1 -145 8 -140 4 2 9 -5 9 -17 2 -17 0 -19 -7 -7 -7 11 -10 12 -10 2 0 -7
6 -20 14 -28 13 -12 15 -12 20 4 3 9 4 5 2 -10 -2 -16 1 -28 6 -28 5 0 6 -5 3
-10 -3 -6 -1 -10 6 -10 8 0 8 -4 -1 -15 -9 -11 -9 -15 -1 -15 7 0 11 -6 10
-12 -3 -23 1 -38 9 -37 4 1 16 1 27 0 17 -1 18 -3 5 -11 -13 -9 -13 -10 0 -10
13 0 13 -1 0 -10 -8 -5 -10 -10 -4 -10 7 0 12 -6 11 -12 -1 -39 4 -48 27 -48
19 0 24 -4 21 -20 -2 -11 0 -20 6 -20 5 0 9 -5 9 -11 0 -5 -5 -7 -11 -3 -8 4
-8 0 0 -15 7 -11 15 -20 19 -20 4 1 15 1 25 0 14 -1 16 -5 8 -20 -10 -18 -6
-31 11 -31 5 0 6 5 3 10 -11 18 7 10 26 -12 22 -25 24 -32 7 -22 -10 5 -10 4
-2 -5 6 -7 20 -14 30 -16 11 -1 18 -8 16 -15 -4 -19 28 -49 45 -43 10 4 13 0
11 -12 -2 -10 3 -20 11 -23 9 -3 11 0 6 9 -5 8 0 6 12 -4 11 -9 24 -14 28 -10
5 5 4 1 -3 -8 -10 -13 -7 -18 16 -29 35 -17 44 -18 60 -7 6 5 13 7 13 3 1 -3
2 -9 3 -13 4 -21 24 -44 30 -35 4 7 14 6 31 -1 28 -14 34 -29 8 -21 -14 5 -15
4 -4 -4 8 -5 25 -9 38 -7 17 2 23 -2 19 -12 -4 -11 -1 -11 14 -3 16 8 20 8 20
-4 0 -7 7 -17 16 -20 8 -3 12 -11 8 -17 -5 -8 -3 -9 5 -5 9 6 8 12 -4 26 -11
12 -13 20 -6 25 6 3 14 -1 17 -9 3 -9 10 -13 15 -10 5 3 6 -1 3 -9 -4 -10 4
-16 25 -19 20 -3 28 -1 23 6 -3 6 6 3 21 -7 15 -10 33 -14 40 -10 17 10 47 11
41 1 -8 -13 10 -10 25 5 11 9 13 9 7 0 -4 -8 -1 -13 8 -13 9 0 16 5 16 11 0 8
4 8 15 -1 8 -6 18 -9 23 -6 5 3 18 -1 28 -9 10 -8 14 -15 9 -15 -6 0 -16 5
-23 12 -9 9 -12 9 -12 -1 0 -11 -3 -11 -14 -2 -11 9 -20 10 -35 1 -12 -6 -21
-12 -21 -13 0 -1 31 -3 69 -3 54 -1 68 2 64 12 -3 8 -9 14 -14 14 -5 0 -9 6
-9 13 0 6 11 1 23 -14 19 -21 32 -25 75 -26 l53 0 -23 26 c-19 21 -19 23 -2 8
27 -22 40 -22 23 1 -12 15 -12 16 2 5 11 -9 19 -9 26 -2 8 8 13 8 17 0 4 -6
14 -11 22 -11 8 0 13 4 10 9 -7 11 21 8 31 -4 4 -4 2 -5 -6 0 -10 5 -12 4 -7
-4 5 -8 13 -7 28 4 17 11 25 12 37 2 12 -10 14 -9 8 6 -4 10 -3 16 2 12 5 -3
12 1 14 7 3 8 6 5 6 -6 1 -18 2 -18 19 1 9 10 13 13 9 7 -6 -9 -2 -12 12 -11
12 1 21 5 21 10 0 4 4 5 10 2 6 -3 7 1 4 9 -5 12 0 16 17 15 30 -1 56 5 65 14
12 12 26 8 18 -5 -4 -6 -3 -8 4 -4 6 3 9 15 7 25 -2 12 3 21 16 24 10 3 19 1
19 -4 0 -5 -4 -9 -10 -9 -5 0 -10 -6 -10 -12 1 -8 8 -4 18 7 9 11 28 20 42 20
20 0 25 4 22 24 -2 19 0 22 12 12 11 -9 16 -9 22 0 5 8 3 9 -6 4 -9 -5 -11 -4
-6 4 6 9 11 9 21 1 14 -11 30 2 18 14 -19 19 -9 31 24 28 32 -4 34 -3 29 22
-3 15 -1 24 4 21 13 -8 52 14 45 25 -10 16 13 21 28 6 13 -13 15 -12 15 9 0
16 -5 22 -12 18 -6 -4 -6 0 2 9 19 23 5 50 -19 37 -11 -5 -19 -6 -18 -2 3 21
-2 44 -9 39 -4 -2 -14 -1 -21 3 -10 6 -9 10 4 14 11 5 14 3 9 -6 -5 -9 -4 -9
6 0 10 9 10 15 -4 28 -14 15 -20 13 -18 -6 1 -3 -6 -6 -14 -6 -10 0 -11 4 -5
10 7 7 7 16 0 29 -5 10 -7 23 -4 28 4 6 -2 7 -18 1 -19 -7 -26 -5 -36 11 -7
11 -8 17 -2 14 7 -4 8 -1 5 8 -3 9 -10 13 -15 10 -5 -3 -9 1 -9 8 0 9 -3 9
-10 -2 -7 -12 -11 -8 -16 18 -6 30 -24 40 -66 33 -4 0 -4 9 1 22 8 21 6 22
-36 20 -25 0 -50 -7 -57 -13 -8 -10 -8 -11 3 -5 9 5 12 3 9 -6 -2 -8 -17 -15
-31 -17 -15 -2 -27 -8 -27 -13 0 -6 5 -7 12 -3 7 5 8 3 4 -5 -5 -7 -14 -10
-22 -7 -7 3 -16 0 -20 -6 -4 -7 -3 -8 4 -4 7 4 12 1 12 -7 0 -10 -8 -13 -25
-9 -15 2 -25 0 -25 -7 0 -7 6 -9 13 -5 9 5 9 4 0 -6 -15 -16 -46 -23 -37 -9 3
5 11 6 17 2 7 -4 6 0 -2 10 -13 17 -26 24 -17 9 9 -15 -23 -44 -46 -40 -19 2
-23 -1 -20 -22 l2 -25 -15 25 c-15 23 -15 23 -10 3 4 -14 2 -23 -4 -23 -6 0
-11 6 -11 13 0 8 -3 8 -9 -2 -5 -8 -16 -11 -25 -8 -8 3 -17 3 -20 -1 -2 -4
-21 -7 -41 -6 -23 1 -35 -2 -32 -10 3 -6 10 -10 16 -8 7 1 10 -2 6 -8 -7 -11
-45 9 -45 25 0 5 -5 3 -10 -5 -5 -8 -10 -19 -10 -25 0 -5 4 -5 8 1 5 9 10 8
19 -1 9 -10 6 -12 -17 -11 -15 0 -26 4 -23 9 3 5 -4 3 -15 -4 -18 -11 -24 -10
-44 6 -22 20 -22 20 -8 1 14 -18 13 -19 -4 -13 -12 5 -23 3 -28 -5 -5 -9 -8
-9 -8 -1 0 7 -12 10 -30 8 -25 -3 -28 -2 -17 9 9 11 16 11 27 2 13 -9 13 -9 3
5 -7 9 -11 18 -8 20 2 3 -6 5 -20 5 -13 0 -21 -4 -19 -8 3 -5 10 -5 16 -2 7 4
8 2 4 -4 -8 -13 -36 -5 -36 10 0 6 -8 4 -17 -3 -14 -12 -16 -12 -9 0 7 11 0
13 -33 9 -22 -2 -41 0 -41 4 0 4 -9 5 -20 3 -14 -3 -20 2 -20 15 0 10 -4 22
-10 25 -5 3 -10 -2 -10 -12 -1 -16 -2 -16 -10 -2 -5 9 -21 14 -39 13 -21 -1
-31 3 -31 12 0 8 -4 14 -10 14 -5 0 -7 7 -3 16 4 10 1 15 -8 14 -30 -5 -39 1
-39 26 0 14 -4 23 -10 19 -5 -3 -10 0 -10 7 0 10 -3 9 -11 -2 -8 -12 -9 -11
-7 5 2 11 -3 25 -11 31 -13 10 -13 14 -1 30 13 16 13 17 -2 11 -17 -6 -22 11
-7 23 4 3 0 12 -9 20 -14 13 -15 12 -10 -2 4 -9 1 -24 -6 -33 -11 -15 -13 -10
-12 34 1 28 -3 51 -8 51 -5 0 -6 3 -3 7 4 3 1 13 -6 21 -6 9 -7 13 -2 10 6 -4
10 10 10 33 1 34 -2 38 -20 34 -20 -6 -20 -6 0 7 25 16 28 79 5 90 -13 6 -13
7 1 7 16 1 20 35 6 58 -4 6 -1 18 7 25 10 11 11 19 3 34 -10 18 -9 18 8 4 11
-9 16 -10 11 -3 -9 17 -17 58 -9 49 3 -3 13 0 22 7 14 10 14 10 3 -5 -7 -9 -9
-18 -5 -20 4 -3 2 -3 -5 -1 -7 1 -10 -2 -7 -8 4 -5 12 -8 18 -6 12 4 17 25 18
81 1 24 4 33 9 25 12 -19 40 7 40 38 0 16 4 22 12 17 8 -5 9 -2 5 10 -4 9 -3
15 2 11 5 -3 16 -2 25 1 15 6 15 8 -1 21 -10 8 -13 12 -6 9 6 -4 14 -2 18 4 3
5 15 10 27 10 14 0 18 5 14 15 -3 8 -1 15 4 15 6 0 10 -5 10 -12 0 -6 3 -8 6
-5 4 4 2 13 -5 20 -9 12 -6 14 16 13 20 -1 28 4 28 16 0 26 12 32 58 31 33 -1
46 4 56 19 7 11 8 17 2 13 -6 -3 -11 -2 -11 3 0 5 19 9 43 7 23 -1 48 2 55 8
8 6 12 6 12 -2 0 -9 5 -9 22 0 17 9 23 9 26 0 3 -8 8 -6 17 5 13 18 50 30 39
13 -3 -5 -9 -7 -14 -4 -5 3 -11 1 -14 -3 -3 -5 35 -9 84 -8 55 1 90 -3 90 -9
0 -7 3 -7 8 0 14 19 32 15 33 -7 0 -17 2 -19 7 -8 10 22 26 22 40 0 9 -14 9
-21 0 -26 -7 -5 -8 -3 -3 6 6 9 4 11 -5 5 -10 -6 -9 -11 5 -22 11 -7 14 -13 9
-13 -6 0 -11 -7 -11 -15 0 -8 3 -15 7 -15 4 0 6 -18 4 -40 -1 -22 3 -43 8 -46
6 -4 8 -2 4 4 -3 6 0 9 9 8 20 -3 24 -8 28 -37 3 -15 11 -23 21 -23 9 1 16 -2
16 -8 0 -5 6 -6 13 -2 6 4 9 4 5 -1 -4 -4 -3 -17 3 -29 10 -20 10 -20 -5 -2
-9 11 -16 14 -16 8 0 -7 14 -21 31 -31 20 -13 26 -21 17 -24 -7 -3 -2 -5 12
-4 14 1 28 7 32 12 5 6 8 3 8 -7 0 -9 4 -20 10 -23 5 -3 7 0 4 9 -5 12 0 14
23 7 15 -4 48 -6 73 -5 25 2 64 4 88 5 41 2 46 7 43 39 -1 11 3 10 14 -4 15
-19 15 -19 15 3 0 13 4 20 11 15 8 -5 8 -1 0 13 -13 25 -4 35 19 23 15 -8 17
-3 19 38 2 26 3 55 3 65 -1 9 4 15 9 11 6 -3 8 -12 5 -20 -3 -8 0 -11 9 -7 8
3 12 9 9 14 -3 5 0 9 5 9 6 0 11 5 11 11 0 8 -5 8 -15 -1 -18 -15 -20 1 -2 19
10 11 9 12 -2 6 -11 -6 -13 -4 -8 8 4 12 2 14 -10 10 -13 -5 -14 -3 -3 17 10
18 9 21 -1 15 -9 -6 -11 -2 -7 13 4 12 3 22 -2 22 -4 0 -6 14 -4 30 2 17 -1
30 -6 30 -6 0 -10 -4 -10 -10 0 -5 -5 -10 -11 -10 -6 0 -9 7 -6 15 4 8 2 17
-4 20 -5 4 -7 10 -5 14 3 4 0 13 -6 21 -8 12 -8 11 -3 -5 5 -16 4 -18 -7 -7
-16 16 -17 34 -3 45 6 5 3 7 -7 3 -10 -3 -20 -1 -24 5 -3 5 -15 7 -27 3 -22
-6 -22 -6 -2 9 20 16 16 29 -10 33 -7 1 -13 -3 -11 -9 1 -7 -2 -2 -8 11 -5 12
-14 22 -19 22 -4 0 -5 -6 -1 -12 4 -7 -2 -4 -14 6 -23 20 -31 36 -9 18 9 -8
17 -8 27 0 12 8 12 9 -2 4 -10 -3 -20 -1 -23 4 -3 5 -15 7 -26 5 -17 -3 -20 0
-16 16 4 16 3 18 -9 8 -11 -9 -14 -7 -14 12 0 19 -2 21 -10 9 -8 -12 -10 -12
-10 -1 0 8 -3 11 -6 8 -4 -3 -15 -2 -25 4 -14 7 -19 6 -19 -3 0 -10 -3 -9 -9
1 -5 8 -7 21 -3 29 3 9 1 13 -5 9 -6 -4 -23 -3 -37 2 -18 8 -24 7 -22 -2 1 -7
1 -9 -1 -4 -3 4 -11 7 -19 7 -8 0 -14 5 -14 10 0 6 -7 10 -15 10 -8 0 -14 5
-13 12 3 14 -37 18 -70 6 -16 -6 -24 -4 -28 7 -4 8 -10 12 -15 9 -5 -3 -6 -11
-2 -17 5 -9 3 -9 -8 -1 -8 6 -33 10 -56 9 -23 -1 -40 2 -38 6 3 4 -2 10 -11
13 -8 3 -12 11 -8 17 5 8 3 9 -5 4 -9 -5 -10 -10 -2 -18 19 -19 12 -28 -8 -10
-11 9 -18 19 -16 22 2 3 -30 6 -70 6 -41 1 -72 -2 -69 -6z m384 -45 c0 -8 -19
-13 -24 -6 -3 5 1 9 9 9 8 0 15 -2 15 -3z m399 -238 c9 -11 9 -16 -1 -22 -7
-4 -10 -4 -6 1 4 4 3 14 -3 22 -6 7 -9 13 -6 13 2 0 10 -6 16 -14z m-589 -106
c0 -5 -2 -10 -4 -10 -3 0 -8 5 -11 10 -3 6 -1 10 4 10 6 0 11 -4 11 -10z
m-286 -51 c-3 -5 -10 -7 -15 -3 -5 3 -7 10 -3 15 3 5 10 7 15 3 5 -3 7 -10 3
-15z m-664 -3 c0 -2 -7 -6 -15 -10 -8 -3 -15 -1 -15 4 0 6 7 10 15 10 8 0 15
-2 15 -4z m1645 -66 c3 -5 1 -10 -4 -10 -6 0 -11 5 -11 10 0 6 2 10 4 10 3 0
8 -4 11 -10z m-1705 -25 c7 -9 8 -15 2 -15 -5 0 -12 7 -16 15 -3 8 -4 15 -2
15 2 0 9 -7 16 -15z m455 -114 c3 -5 0 -13 -6 -17 -7 -4 -9 -3 -5 4 3 5 0 13
-6 15 -9 4 -10 6 -1 6 6 1 14 -3 18 -8z m885 -62 c0 -4 -7 -6 -15 -3 -8 4 -15
10 -15 15 0 4 7 6 15 3 8 -4 15 -10 15 -15z m264 -10 c-3 -5 -10 -7 -15 -3 -5
3 -7 10 -3 15 3 5 10 7 15 3 5 -3 7 -10 3 -15z m-1244 -165 c0 -8 -19 -13 -24
-6 -3 5 1 9 9 9 8 0 15 -2 15 -3z m0 -59 c0 -12 -19 -12 -23 0 -4 9 -1 12 9 8
7 -3 14 -7 14 -8z m-6 -40 c-7 -16 -24 -21 -24 -6 0 8 7 13 27 20 1 1 0 -6 -3
-14z m-234 -479 c0 -3 -4 -8 -10 -11 -5 -3 -10 -1 -10 4 0 6 5 11 10 11 6 0
10 -2 10 -4z m140 -162 c0 -8 -19 -13 -24 -6 -3 5 1 9 9 9 8 0 15 -2 15 -3z
m105 -84 c3 -5 1 -10 -4 -10 -6 0 -11 5 -11 10 0 6 2 10 4 10 3 0 8 -4 11 -10z
m1165 -40 c0 -5 -4 -10 -10 -10 -5 0 -10 5 -10 10 0 6 5 10 10 10 6 0 10 -4
10 -10z m-222 -85 c-3 -3 -9 2 -12 12 -6 14 -5 15 5 6 7 -7 10 -15 7 -18z
m-340 -60 c-3 -3 -9 2 -12 12 -6 14 -5 15 5 6 7 -7 10 -15 7 -18z m48 10 c10
-8 15 -14 9 -14 -5 0 -19 6 -29 14 -11 8 -15 15 -10 15 6 0 19 -7 30 -15z"/>
<path d="M1175 1911 c-3 -5 -2 -12 3 -15 5 -3 9 1 9 9 0 17 -3 19 -12 6z"/>
<path d="M1519 1813 c-13 -16 -12 -17 4 -4 9 7 17 15 17 17 0 8 -8 3 -21 -13z"/>
<path d="M915 1469 c-4 -6 -5 -12 -2 -15 2 -3 7 2 10 11 7 17 1 20 -8 4z"/>
<path d="M1891 1434 c0 -11 3 -14 6 -6 3 7 2 16 -1 19 -3 4 -6 -2 -5 -13z"/>
<path d="M1810 1256 c0 -2 8 -10 18 -17 15 -13 16 -12 3 4 -13 16 -21 21 -21
13z"/>
<path d="M1613 1145 c0 -8 4 -12 9 -9 5 3 6 10 3 15 -9 13 -12 11 -12 -6z"/>
<path d="M700 535 c7 -8 17 -15 22 -15 5 0 3 7 -6 15 -8 8 -18 15 -22 15 -3 0
-1 -7 6 -15z"/>
<path d="M810 500 c-9 -6 -10 -10 -3 -10 6 0 15 5 18 10 8 12 4 12 -15 0z"/>
<path d="M1071 453 c7 -12 15 -20 18 -17 3 2 -3 12 -13 22 -17 16 -18 16 -5
-5z"/>
<path d="M1105 460 c-3 -6 1 -7 9 -4 18 7 21 14 7 14 -6 0 -13 -4 -16 -10z"/>
<path d="M1864 302 c3 -6 -4 -18 -16 -26 -12 -9 -18 -16 -12 -16 6 0 19 9 28
19 13 14 14 21 5 27 -7 4 -10 3 -5 -4z"/>
<path d="M1775 211 c-3 -5 -2 -12 3 -15 5 -3 9 1 9 9 0 17 -3 19 -12 6z"/>
<path d="M559 178 c-7 -23 -4 -35 7 -35 9 0 11 4 4 12 -5 7 -7 15 -3 18 3 4 3
7 0 7 -4 0 -7 -1 -8 -2z"/>
<path d="M1241 27 c-18 -18 -12 -28 15 -23 35 7 37 10 15 23 -14 9 -21 9 -30
0z m23 -5 c3 -5 -1 -9 -9 -9 -8 0 -12 4 -9 9 3 4 7 8 9 8 2 0 6 -4 9 -8z"/>
<path d="M940 20 c-9 -6 -10 -10 -3 -10 6 0 15 5 18 10 8 12 4 12 -15 0z"/>
</g>
</svg>
